<svg width="16" height="24" viewBox="0 0 16 24" fill="none" xmlns="http://www.w3.org/2000/svg">
<path fill-rule="evenodd" clip-rule="evenodd" d="M8.22125 9.6929C7.26176 9.6929 6.44781 8.9098 6.44781 7.92403C6.44781 6.96743 7.23249 6.15594 8.22125 6.15594C9.18154 6.15594 9.99548 6.93826 9.99548 7.92403C9.99548 8.9098 9.18154 9.6929 8.22125 9.6929ZM8.22162 4.84937C6.53508 4.84937 5.13965 6.24127 5.13965 7.92259C5.13965 9.60471 6.53508 10.9966 8.22162 10.9966C9.90895 10.9966 11.3044 9.60471 11.3044 7.92259C11.3044 6.24127 9.90895 4.84937 8.22162 4.84937Z" fill="#464646"/>
<path fill-rule="evenodd" clip-rule="evenodd" d="M8.22076 21.8121L2.54981 10.8526C2.08467 9.9536 1.85132 8.96783 1.85132 7.92448C1.85132 4.41591 4.73149 1.54611 8.25003 1.54611C11.7686 1.54611 14.6479 4.41591 14.6479 7.92448C14.6479 8.93944 14.4154 9.92521 13.9503 10.8235L8.22076 21.8121ZM15.9291 7.92305C15.9291 3.68972 12.4683 0.239502 8.22195 0.239502C3.97643 0.239502 0.515625 3.68972 0.515625 7.92305C0.515625 9.14068 0.805937 10.3875 1.38735 11.46L7.64054 23.5504C7.75682 23.7822 7.98939 23.8982 8.22195 23.8982C8.45452 23.8982 8.68788 23.7531 8.80337 23.5504L11.9446 17.5052L15.0858 11.46C15.638 10.3583 15.9291 9.14068 15.9291 7.92305Z" fill="#464646"/>
</svg>
